<?xml version="1.0"?>
<svg xmlns="http://www.w3.org/2000/svg" xmlns:xlink="http://www.w3.org/1999/xlink" xmlns:svgjs="http://svgjs.com/svgjs" version="1.1" width="512" height="512" x="0" y="0" viewBox="0 0 511.997 511.997" style="enable-background:new 0 0 512 512" xml:space="preserve" class=""><g>
<path xmlns="http://www.w3.org/2000/svg" style="" d="M255.998,61.004L255.998,61.004c105.371,0,190.796,85.424,190.796,190.796v69.38  c0,105.371-85.424,190.796-190.796,190.796l0,0c-105.371,0-190.796-85.424-190.796-190.796V251.8  C65.203,146.429,150.627,61.004,255.998,61.004z" fill="#fbccad" data-original="#fbccad"/>
<g xmlns="http://www.w3.org/2000/svg">
	<path style="" d="M13.168,277.817c0,23.945,19.418,43.363,43.363,43.363h8.673v-86.725H56.53   C32.585,234.455,13.168,253.873,13.168,277.817z" fill="#fab98f" data-original="#fab98f"/>
	<path style="" d="M455.467,234.455h-8.673v86.725h8.673c23.945,0,43.363-19.418,43.363-43.363   S479.42,234.455,455.467,234.455z" fill="#fab98f" data-original="#fab98f"/>
</g>
<g xmlns="http://www.w3.org/2000/svg">
	<circle style="" cx="143.256" cy="251.765" r="26.018" fill="#ed930b" data-original="#4398d1" class=""/>
	<circle style="" cx="368.741" cy="251.765" r="26.018" fill="#ed930b" data-original="#4398d1" class=""/>
</g>
<path xmlns="http://www.w3.org/2000/svg" style="" d="M169.273,312.508h173.451l0,0l0,0c0,47.898-38.827,86.725-86.725,86.725l0,0  C208.109,399.233,169.273,360.406,169.273,312.508L169.273,312.508L169.273,312.508z" fill="#f28585" data-original="#f28585" class=""/>
<path xmlns="http://www.w3.org/2000/svg" style="" d="M359.54,148.597c0.425-52.686-41.94-95.736-94.626-96.161c-0.017,0-0.026,0-0.043,0l-8.673-0.069l0,0  l-14.795-0.113c-15.801-0.104-28.533-13-28.429-28.81c0.035-5.204,1.492-10.303,4.206-14.743l0,0h-3.955  c-38.315-0.26-69.597,30.579-69.857,68.903c-0.061,8.291,1.37,16.53,4.224,24.318l0,0c9.947,27.154,35.696,45.288,64.61,45.513  L359.54,148.597z" fill="#000000" data-original="#f9bc61" class=""/>
<path xmlns="http://www.w3.org/2000/svg" style="" d="M289.206,147.73h17.544c-4.284-29.669-29.582-51.775-59.554-52.035l-31.221-0.234  c-18.62-0.173-34.829-12.757-39.625-30.744c-5.325-20.129,6.678-40.761,26.807-46.086c3.235-0.859,6.574-1.275,9.921-1.249  l8.23,0.095l0.13-17.345l-8.204-0.13c-30.397-0.234-55.227,24.231-55.461,54.628c-0.035,4.891,0.581,9.765,1.83,14.492  c6.808,25.541,29.825,43.406,56.259,43.649l31.221,0.234C267.559,113.204,285.112,127.67,289.206,147.73z" fill="#24190b" data-original="#f8ac4f" class=""/>
<g xmlns="http://www.w3.org/2000/svg">
	<rect x="221.308" y="312.473" style="" width="34.69" height="34.69" fill="#e6e6e6" data-original="#e6e6e6"/>
	<rect x="255.998" y="312.473" style="" width="34.69" height="34.69" fill="#e6e6e6" data-original="#e6e6e6"/>
</g>
<rect xmlns="http://www.w3.org/2000/svg" x="247.326" y="312.473" style="" width="17.345" height="34.69" fill="#dedede" data-original="#dedede"/>
<path xmlns="http://www.w3.org/2000/svg" style="" d="M411.549,141.347c0.33,6.383,0.555,12.87,0.555,19.392c0,165.246-106.776,299.202-238.494,299.202  c-19.348-0.017-38.584-2.94-57.065-8.673c71.783,77.073,192.452,81.357,269.525,9.574c38.758-36.104,60.76-86.699,60.725-139.662  V251.8C446.846,212.21,434.522,173.591,411.549,141.347z" fill="#ffc096" data-original="#ffc096"/>
<g xmlns="http://www.w3.org/2000/svg">
</g>
<g xmlns="http://www.w3.org/2000/svg">
</g>
<g xmlns="http://www.w3.org/2000/svg">
</g>
<g xmlns="http://www.w3.org/2000/svg">
</g>
<g xmlns="http://www.w3.org/2000/svg">
</g>
<g xmlns="http://www.w3.org/2000/svg">
</g>
<g xmlns="http://www.w3.org/2000/svg">
</g>
<g xmlns="http://www.w3.org/2000/svg">
</g>
<g xmlns="http://www.w3.org/2000/svg">
</g>
<g xmlns="http://www.w3.org/2000/svg">
</g>
<g xmlns="http://www.w3.org/2000/svg">
</g>
<g xmlns="http://www.w3.org/2000/svg">
</g>
<g xmlns="http://www.w3.org/2000/svg">
</g>
<g xmlns="http://www.w3.org/2000/svg">
</g>
<g xmlns="http://www.w3.org/2000/svg">
</g>
</g></svg>
