<?xml version="1.0"?>
<svg xmlns="http://www.w3.org/2000/svg" xmlns:xlink="http://www.w3.org/1999/xlink" xmlns:svgjs="http://svgjs.com/svgjs" version="1.1" width="512" height="512" x="0" y="0" viewBox="0 0 512 512" style="enable-background:new 0 0 512 512" xml:space="preserve" class=""><g>
<path xmlns="http://www.w3.org/2000/svg" style="" d="M208.022,5.923L208.022,5.923C198.912,2.013,189.113,0,179.2,0l0,0  c-40.466,0-73.269,32.803-73.269,73.269l0,0c0.009,33.095,7.715,65.739,22.51,95.338l12.8,43.255h229.517l12.8-43.255  c14.795-29.599,22.502-62.243,22.51-95.338l0,0C406.069,32.803,373.266,0,332.8,0l0,0c-9.922,0-19.73,2.013-28.849,5.923l0,0  C273.32,19.041,238.654,19.041,208.022,5.923z" fill="#e6e6e6" data-original="#e6e6e6" class=""/>
<path xmlns="http://www.w3.org/2000/svg" style="" d="M150.069,88.276h-17.655V77.683c0.468-21.063,12.288-40.218,30.897-50.079l8.828,15.369  c-13.1,6.735-21.539,20.03-22.069,34.754V88.276z" fill="#f2f2f2" data-original="#f2f2f2" class=""/>
<polygon xmlns="http://www.w3.org/2000/svg" style="" points="282.483,512 229.517,512 211.862,467.862 211.862,264.828 300.138,264.828 300.138,467.862   " fill="#e99226" data-original="#3e8cc7" class=""/>
<g xmlns="http://www.w3.org/2000/svg">
	
		<rect x="247.173" y="229.03" transform="matrix(-0.1104 0.9939 -0.9939 -0.1104 591.3391 88.6379)" style="" width="17.655" height="159.87" fill="#d17e43" data-original="#4398d1" class=""/>
	
		<rect x="247.168" y="281.936" transform="matrix(-0.1104 0.9939 -0.9939 -0.1104 643.9161 147.3902)" style="" width="17.655" height="159.87" fill="#d17e43" data-original="#4398d1" class=""/>
	
		<rect x="247.171" y="334.924" transform="matrix(-0.1104 0.9939 -0.9939 -0.1104 696.5837 206.2241)" style="" width="17.655" height="159.87" fill="#d17e43" data-original="#4398d1" class=""/>
	
		<rect x="247.175" y="387.91" transform="matrix(-0.1104 0.9939 -0.9939 -0.1104 749.2496 265.0558)" style="" width="17.655" height="159.87" fill="#d17e43" data-original="#4398d1" class=""/>
</g>
<g xmlns="http://www.w3.org/2000/svg">
	<rect x="176.552" y="211.862" style="" width="158.897" height="52.966" fill="#dedede" data-original="#dedede"/>
	<path style="" d="M378.801,16.269C328.474,129.889,237.515,184.682,172.5,211.862h198.259l12.8-43.255   c14.795-29.599,22.502-62.243,22.51-95.338l0,0C406.095,51.121,396.058,30.155,378.801,16.269z" fill="#dedede" data-original="#dedede"/>
</g>
<rect xmlns="http://www.w3.org/2000/svg" x="256" y="211.862" style="" width="79.448" height="52.966" fill="#d1d1d1" data-original="#d1d1d1"/>
<g xmlns="http://www.w3.org/2000/svg">
</g>
<g xmlns="http://www.w3.org/2000/svg">
</g>
<g xmlns="http://www.w3.org/2000/svg">
</g>
<g xmlns="http://www.w3.org/2000/svg">
</g>
<g xmlns="http://www.w3.org/2000/svg">
</g>
<g xmlns="http://www.w3.org/2000/svg">
</g>
<g xmlns="http://www.w3.org/2000/svg">
</g>
<g xmlns="http://www.w3.org/2000/svg">
</g>
<g xmlns="http://www.w3.org/2000/svg">
</g>
<g xmlns="http://www.w3.org/2000/svg">
</g>
<g xmlns="http://www.w3.org/2000/svg">
</g>
<g xmlns="http://www.w3.org/2000/svg">
</g>
<g xmlns="http://www.w3.org/2000/svg">
</g>
<g xmlns="http://www.w3.org/2000/svg">
</g>
<g xmlns="http://www.w3.org/2000/svg">
</g>
</g></svg>
