<?xml version="1.0"?>
<svg xmlns="http://www.w3.org/2000/svg" xmlns:xlink="http://www.w3.org/1999/xlink" xmlns:svgjs="http://svgjs.com/svgjs" version="1.1" width="512" height="512" x="0" y="0" viewBox="0 0 512 512" style="enable-background:new 0 0 512 512" xml:space="preserve" class=""><g transform="matrix(1,0,0,1,0,0)">
<path xmlns="http://www.w3.org/2000/svg" style="" d="M350.848,381.181h-21.934c-11.024,0-21.315,5.512-27.411,14.695  c-6.096-9.184-16.379-14.695-27.402-14.695h-21.934c-8.111,0.026-15.916,3.052-21.925,8.503c-6.009-5.451-13.814-8.477-21.925-8.503  h-21.934c-7.631,0.026-15.009,2.73-20.853,7.631c-4.082-6.401-10.239-11.216-17.443-13.623l-22.893-7.596  c-7.971-2.677-16.666-2.215-24.306,1.299c-0.288-7.849-3.532-15.297-9.088-20.853l-17.233-17.155  c-3.959-3.89-8.878-6.654-14.251-8.032c3.558-5.32,5.468-11.582,5.468-17.983v-21.803c-0.026-8.085-3.079-15.855-8.556-21.803  c5.477-5.948,8.529-13.719,8.556-21.803v-21.803c0-6.401-1.91-12.663-5.468-17.983c5.372-1.378,10.291-4.143,14.251-8.032  L91.8,174.487c5.573-5.547,8.835-13.003,9.131-20.861c7.64,3.515,16.335,3.977,24.306,1.299l22.885-7.588  c7.204-2.407,13.361-7.221,17.443-13.631c5.843,4.901,13.221,7.605,20.853,7.631h21.934c8.111-0.026,15.916-3.052,21.925-8.503  c6.009,5.451,13.814,8.477,21.925,8.503h21.934c11.024,0,21.306-5.512,27.402-14.695c6.087,9.175,16.361,14.695,27.376,14.704  h21.934c18.062,0,32.705-14.643,32.705-32.705s-14.643-32.705-32.705-32.705h-21.934c-11.024,0-21.315,5.512-27.411,14.695  c-6.096-9.183-16.379-14.695-27.402-14.695h-21.934c-8.111,0.026-15.916,3.052-21.925,8.503c-6.009-5.451-13.814-8.477-21.925-8.503  h-21.934c-10.91-0.009-21.123,5.398-27.254,14.425c-8.904-7.553-21.114-9.907-32.19-6.21l-22.885,7.588  c-13.169,4.422-22.231,16.536-22.736,30.42c-13.248-6.593-29.312-3.044-38.539,8.529l-15.306,19.021  c-8.407,10.352-9.279,24.917-2.18,36.202C10.527,189.365,0.07,202.499,0,217.657v21.803c0.026,8.085,3.079,15.855,8.556,21.803  C3.079,267.211,0.026,274.982,0,283.066v21.803c0.07,15.158,10.527,28.292,25.292,31.745c-7.117,11.285-6.244,25.841,2.163,36.202  l15.306,19.03c6.018,7.492,15.123,11.844,24.734,11.809l0,0c4.788-0.035,9.515-1.151,13.806-3.279  c0.515,13.876,9.559,25.981,22.719,30.402l22.902,7.596c3.419,1.151,7.003,1.736,10.605,1.744l0,0  c7.91-0.009,15.55-2.817,21.585-7.928c6.14,9.027,16.352,14.416,27.271,14.399h21.934c8.111-0.026,15.916-3.052,21.925-8.503  c6.009,5.451,13.814,8.477,21.925,8.503h21.934c11.024,0,21.306-5.512,27.402-14.695c6.096,9.184,16.387,14.695,27.411,14.695  h21.934c18.062,0,32.705-14.643,32.705-32.705C383.553,395.824,368.91,381.181,350.848,381.181z" fill="#ededed" data-original="#7bbdd1" class=""/>
<g xmlns="http://www.w3.org/2000/svg">
	<path style="" d="M350.848,446.59h-21.934c-11.024,0-21.315-5.512-27.411-14.695   c-6.096,9.184-16.379,14.695-27.402,14.695h-21.934c-8.111-0.026-15.916-3.052-21.925-8.503   c-6.009,5.451-13.814,8.477-21.925,8.503h-21.934c-10.91,0.009-21.123-5.398-27.254-14.425c-6.035,5.111-13.675,7.919-21.585,7.928   l0,0c-3.602-0.009-7.186-0.593-10.605-1.744l-22.902-7.596c-13.152-4.422-22.204-16.518-22.719-30.385   c-4.291,2.128-9.018,3.244-13.806,3.279l0,0c-9.611,0.035-18.716-4.317-24.734-11.809l-15.306-19.021   c-8.407-10.352-9.288-24.917-2.18-36.202c-14.408-3.384-24.751-16.021-25.231-30.812c-0.244,17.905,0.75,35.81,2.991,53.575   C18.855,447.672,95.638,511.956,185.327,512h146.081c28.902,0,52.328-23.425,52.328-52.328l0,0v-43.606h-0.218   C382.341,433.247,368.073,446.582,350.848,446.59z" fill="#e98f8f" data-original="#a2daeb" class=""/>
	<path style="" d="M350.848,141.346h-21.934c-11.024,0-21.315-5.512-27.411-14.695   c-6.096,9.183-16.379,14.695-27.402,14.695h-21.934c-8.111-0.026-15.916-3.052-21.925-8.503   c-6.009,5.451-13.814,8.477-21.925,8.503h-21.934c-7.631-0.035-15.009-2.73-20.853-7.631c-4.082,6.41-10.239,11.224-17.443,13.631   l-22.885,7.588c-7.971,2.677-16.666,2.215-24.306-1.299c-0.288,7.849-3.541,15.297-9.096,20.853l-17.233,17.155   c-3.959,3.89-8.878,6.654-14.251,8.032c3.558,5.32,5.468,11.582,5.468,17.983v21.803c-0.035,7.884-2.965,15.489-8.224,21.367   l3.489-1.744c32.67-33.498,77.489-52.371,124.278-52.328h146.081c28.902,0,52.328-23.425,52.328-52.328v-45.787   C383.666,126.746,368.954,141.372,350.848,141.346z" fill="#e98f8f" data-original="#a2daeb" class=""/>
</g>
<polygon xmlns="http://www.w3.org/2000/svg" style="" points="424.787,0 412.455,12.332 438.619,38.496 355.017,122.098 389.902,156.983 473.504,73.381   499.668,99.545 512,87.213 " fill="#d1d1d1" data-original="#d1d1d1"/>
<g xmlns="http://www.w3.org/2000/svg">
	<polygon style="" points="165.704,328.853 183.147,346.296 235.474,311.411 200.589,276.526  " fill="#f3b283" data-original="#4398d1" class=""/>
	<polygon style="" points="191.868,267.804 200.589,276.526 235.474,311.411 244.196,320.132 322.687,241.64    270.36,189.313  " fill="#f3b283" data-original="#4398d1" class=""/>
</g>
<polygon xmlns="http://www.w3.org/2000/svg" style="" points="328.853,95.934 316.521,108.266 333.964,125.708 270.36,189.313 322.687,241.64   386.291,178.036 403.734,195.479 416.066,183.147 " fill="#e6e6e6" data-original="#e6e6e6"/>
<g xmlns="http://www.w3.org/2000/svg">
</g>
<g xmlns="http://www.w3.org/2000/svg">
</g>
<g xmlns="http://www.w3.org/2000/svg">
</g>
<g xmlns="http://www.w3.org/2000/svg">
</g>
<g xmlns="http://www.w3.org/2000/svg">
</g>
<g xmlns="http://www.w3.org/2000/svg">
</g>
<g xmlns="http://www.w3.org/2000/svg">
</g>
<g xmlns="http://www.w3.org/2000/svg">
</g>
<g xmlns="http://www.w3.org/2000/svg">
</g>
<g xmlns="http://www.w3.org/2000/svg">
</g>
<g xmlns="http://www.w3.org/2000/svg">
</g>
<g xmlns="http://www.w3.org/2000/svg">
</g>
<g xmlns="http://www.w3.org/2000/svg">
</g>
<g xmlns="http://www.w3.org/2000/svg">
</g>
<g xmlns="http://www.w3.org/2000/svg">
</g>
</g></svg>
