<?xml version="1.0"?>
<svg xmlns="http://www.w3.org/2000/svg" xmlns:xlink="http://www.w3.org/1999/xlink" xmlns:svgjs="http://svgjs.com/svgjs" version="1.1" width="512" height="512" x="0" y="0" viewBox="0 0 512 512" style="enable-background:new 0 0 512 512" xml:space="preserve" class=""><g>
<path xmlns="http://www.w3.org/2000/svg" style="" d="M421.61,292.285c-21.392-6.118-44.105,3.879-54.059,23.777H328.98  c-12.983,0-25.562-4.462-35.645-12.64l-1.193-0.961c-21.006-17.016-51.107-16.81-71.881,0.481l0,0  c-10.177,8.478-22.997,13.12-36.237,13.12h-39.575c-9.954-19.899-32.667-29.896-54.059-23.777L7.156,316.063V504.84h497.687V316.063  L421.61,292.285z" fill="#f7a6a6" data-original="#f7a6a6"/>
<path xmlns="http://www.w3.org/2000/svg" style="" d="M7.156,435.997v68.844h497.687V316.063l-50.678-14.484  C332.918,394.337,117.171,423.898,7.156,435.997z" fill="#f59a9a" data-original="#f59a9a" class=""/>
<path xmlns="http://www.w3.org/2000/svg" style="" d="M209.363,133.042L209.363,133.042c-8.855-3.801-18.38-5.758-28.016-5.758l0,0  c-39.334,0-71.221,31.886-71.221,71.221l0,0c0.009,32.169,7.5,63.901,21.881,92.673l12.442,24.884l14.75,132.719  c1.373,12.374,11.824,21.735,24.275,21.735l0,0c12.09,0,22.37-8.847,24.164-20.808l18.801-125.349  c2.197-14.63,14.768-25.459,29.561-25.459l0,0c14.793,0,27.364,10.829,29.561,25.459l18.801,125.349  c1.793,11.962,12.073,20.808,24.164,20.808l0,0c12.451,0,22.902-9.362,24.275-21.735l14.75-132.719l12.442-24.884  c14.381-28.771,21.872-60.503,21.881-92.673l0,0c0-39.334-31.886-71.221-71.221-71.221l0,0c-9.645,0-19.178,1.956-28.042,5.758l0,0  C272.836,145.793,239.139,145.793,209.363,133.042z" fill="#e6e6e6" data-original="#e6e6e6" class=""/>
<path xmlns="http://www.w3.org/2000/svg" style="" d="M365.834,136.612c-43.874,116.811-151.022,184.496-217.266,216.511l10.632,95.659  c1.493,13.412,13.575,23.074,26.978,21.581c11.009-1.227,19.813-9.696,21.461-20.654l18.801-125.349  c2.463-16.329,17.694-27.562,34.023-25.099c12.966,1.956,23.142,12.133,25.099,25.099l18.801,125.349  c1.999,13.343,14.442,22.533,27.785,20.534c10.949-1.648,19.427-10.451,20.654-21.461l14.75-132.719l12.442-24.884  c14.381-28.771,21.872-60.503,21.881-92.673l0,0C401.882,172.892,388.119,149.251,365.834,136.612z" fill="#dedede" data-original="#dedede" class=""/>
<path xmlns="http://www.w3.org/2000/svg" style="" d="M153.03,230.254h-17.162v-11.97c-0.026-22.199,11.078-42.938,29.561-55.235l9.525,14.278  c-13.712,9.113-21.941,24.49-21.924,40.956V230.254z" fill="#f2f2f2" data-original="#f2f2f2" class=""/>
<path xmlns="http://www.w3.org/2000/svg" style="" d="M507.289,289.985l-80.831-23.057c-4.591-1.167-7.371-5.835-6.213-10.426  c0-0.009,0.009-0.017,0.009-0.026c4.865-18.938,7.345-38.416,7.362-57.972c-0.009-53.553-43.419-96.955-96.972-96.955  c-13.111,0-26.094,2.66-38.15,7.826c-23.297,9.937-49.64,9.937-72.937,0c-49.22-21.1-106.222,1.69-127.331,50.91  c-5.174,12.073-7.851,25.082-7.843,38.219c0.017,19.564,2.488,39.051,7.362,57.998c1.176,4.591-1.587,9.267-6.178,10.443  c-0.009,0-0.017,0.009-0.026,0.009l-2.222,0.601l-78.609,22.43L0,273.493l73.169-20.929c-3.939-17.754-5.929-35.876-5.947-54.059  c0.009-63.026,51.116-114.116,114.142-114.108c15.437,0,30.711,3.141,44.903,9.216c18.998,8.1,40.467,8.1,59.465,0  c57.938-24.807,125.022,2.051,149.83,59.988c6.075,14.193,9.207,29.467,9.216,44.903c-0.009,18.2-2.008,36.34-5.947,54.102  L512,273.519L507.289,289.985z" fill="#ffb329" data-original="#a2daeb" class=""/>
<path xmlns="http://www.w3.org/2000/svg" style="" d="M67.222,110.123L67.222,110.123C64.287,92.524,50.498,78.734,32.899,75.8l0,0  c17.599-2.935,31.389-16.724,34.323-34.323l0,0c2.935,17.599,16.724,31.389,34.323,34.323l0,0  C83.946,78.734,70.157,92.524,67.222,110.123z" fill="#f9bc61" data-original="#f9bc61"/>
<rect xmlns="http://www.w3.org/2000/svg" x="301.284" y="77.278" transform="matrix(-0.7071 0.7071 -0.7071 -0.7071 772.5726 -116.9128)" style="" width="218.431" height="48.541" fill="#f37e19" data-original="#4398d1" class=""/>
<polygon xmlns="http://www.w3.org/2000/svg" style="" points="350.389,195.931 316.066,298.901 213.096,195.931 316.066,161.608 " fill="#ffb329" data-original="#a2daeb" class=""/>
<g xmlns="http://www.w3.org/2000/svg">
	
		<rect x="242.246" y="204.513" transform="matrix(-0.8321 0.5547 -0.5547 -0.8321 618.6918 238.8738)" style="" width="61.879" height="17.162" fill="#d1af7b" data-original="#7bbdd1" class=""/>
	
		<rect x="267.981" y="230.245" transform="matrix(-0.5547 0.8321 -0.8321 -0.5547 663.4437 122.5754)" style="" width="61.879" height="17.162" fill="#d1af7b" data-original="#7bbdd1" class=""/>
</g>
<g xmlns="http://www.w3.org/2000/svg">
</g>
<g xmlns="http://www.w3.org/2000/svg">
</g>
<g xmlns="http://www.w3.org/2000/svg">
</g>
<g xmlns="http://www.w3.org/2000/svg">
</g>
<g xmlns="http://www.w3.org/2000/svg">
</g>
<g xmlns="http://www.w3.org/2000/svg">
</g>
<g xmlns="http://www.w3.org/2000/svg">
</g>
<g xmlns="http://www.w3.org/2000/svg">
</g>
<g xmlns="http://www.w3.org/2000/svg">
</g>
<g xmlns="http://www.w3.org/2000/svg">
</g>
<g xmlns="http://www.w3.org/2000/svg">
</g>
<g xmlns="http://www.w3.org/2000/svg">
</g>
<g xmlns="http://www.w3.org/2000/svg">
</g>
<g xmlns="http://www.w3.org/2000/svg">
</g>
<g xmlns="http://www.w3.org/2000/svg">
</g>
</g></svg>
