<?xml version="1.0" encoding="iso-8859-1"?>
<!-- Generator: Adobe Illustrator 19.0.0, SVG Export Plug-In . SVG Version: 6.00 Build 0)  -->
<svg version="1.1" id="Capa_1" xmlns="http://www.w3.org/2000/svg" xmlns:xlink="http://www.w3.org/1999/xlink" x="0px" y="0px"
	 viewBox="0 0 512 512" style="enable-background:new 0 0 512 512;" xml:space="preserve">
<path style="fill:#F7A6A6;" d="M317.793,245.879h-35.31c-16.04-10.69-36.926-10.69-52.966,0h-35.31
	c-4.228-12.685-17.946-19.535-30.632-15.307c-1.351,0.45-2.657,1.015-3.902,1.695c-6.938,3.425-14.618,5.067-22.351,4.785H26.483
	C11.855,237.052,0,248.907,0,263.534v185.379h512V254.707c-0.018-7.848-5.173-14.751-12.694-16.984
	c-6.418-1.766-13.294,0.132-17.894,4.952l-4.723,4.723l-35.31-1.518c-16.04-10.69-36.926-10.69-52.966,0h-35.31
	c-6.471-9.754-19.615-12.412-29.369-5.941C321.377,241.492,319.356,243.513,317.793,245.879z"/>
<path style="fill:#F59A9A;" d="M0,395.639v53.275h512V264.903C381.29,376.245,153.485,396.354,0,395.639z"/>
<path style="fill:#E6E6E6;" d="M183.561,327.093L183.561,327.093c6.921-7.124,10.734-16.711,10.593-26.642l0,0
	c-0.291-20.683-17.293-37.208-37.967-36.917c-0.009,0-0.018,0-0.026,0l0,0c-10.249,0.141-20.365,2.242-29.828,6.179l-29.564,12.359
	l-82.706,6.824c-7.918,0.653-13.974,7.327-13.859,15.272v0.053c0.106,7.168,5.226,13.277,12.27,14.627l76.376,14.583
	c5.058,0.918,8.757,5.297,8.828,10.434l0,0c0.079,5.129-3.487,9.604-8.501,10.681l-76.57,12.8C5.332,368.565,0,374.868,0,382.248
	l0,0c0.018,7.759,5.906,14.248,13.63,15.007l84.913,8.333l29.899,11.476c9.578,3.663,19.765,5.464,30.014,5.297l0,0
	c20.674-0.291,37.191-17.284,36.908-37.959l0,0c-0.141-9.931-4.22-19.403-11.343-26.324l0,0
	C175.351,349.639,175.148,335.779,183.561,327.093z"/>
<path style="fill:#F9BC61;" d="M117.345,181.5l-44.138-44.138c-3.443-3.452-3.434-9.039,0.018-12.482
	c0.671-0.662,1.439-1.218,2.278-1.642l24.355-12.173L64.38,75.569l12.482-12.482L121,107.224c3.443,3.452,3.434,9.039-0.018,12.482
	c-0.671,0.662-1.439,1.218-2.278,1.642l-24.355,12.173L129.827,169L117.345,181.5z"/>
<g>
	<path style="fill:#E6E6E6;" d="M399.386,159.748L399.386,159.748c-7.027-7.027-16.552-10.973-26.483-10.973l0,0
		c-20.683,0-37.455,16.772-37.455,37.455l0,0c0,10.249,1.96,20.401,5.764,29.917l11.891,29.731l7.442,74.461
		c0.786,7.848,7.398,13.815,15.281,13.815l0,0c7.327,0,13.63-5.173,15.06-12.359l13.418-67.257c1.015-5.049,5.447-8.669,10.593-8.66
		l0,0c5.146-0.009,9.578,3.61,10.593,8.66l13.418,67.257c1.43,7.186,7.733,12.359,15.06,12.359l0,0
		c7.892,0,14.495-5.976,15.281-13.824l7.442-74.452l11.891-29.731c3.805-9.516,5.764-19.677,5.764-29.917l0,0
		c0-20.683-16.772-37.455-37.455-37.455l0,0c-9.931,0-19.456,3.946-26.483,10.973l0,0
		C421.844,168.311,407.949,168.311,399.386,159.748z"/>
	<path style="fill:#E6E6E6;" d="M240.49,159.748L240.49,159.748c-7.027-7.027-16.552-10.973-26.483-10.973l0,0
		c-20.683,0-37.455,16.772-37.455,37.455l0,0c0,10.249,1.96,20.401,5.764,29.917l11.891,29.731l7.442,74.461
		c0.786,7.848,7.398,13.815,15.281,13.815l0,0c7.327,0,13.63-5.173,15.06-12.359l13.418-67.257c1.015-5.049,5.447-8.669,10.593-8.66
		l0,0c5.146-0.009,9.578,3.61,10.593,8.66l13.418,67.257c1.43,7.186,7.733,12.359,15.06,12.359l0,0
		c7.892,0,14.495-5.976,15.281-13.824l7.442-74.452l11.891-29.731c3.805-9.516,5.764-19.677,5.764-29.917l0,0
		c0-20.683-16.772-37.455-37.455-37.455l0,0c-9.931,0-19.456,3.946-26.483,10.973l0,0
		C262.947,168.311,249.053,168.311,240.49,159.748z"/>
</g>
<g>
	<path style="fill:#F2F2F2;" d="M211.862,201.741h-17.655v-8.828c0-14.627,11.855-26.483,26.483-26.483v17.655
		c-4.873,0-8.828,3.955-8.828,8.828V201.741z"/>
	<path style="fill:#F2F2F2;" d="M370.759,201.741h-17.655v-8.828c0-14.627,11.855-26.483,26.483-26.483v17.655
		c-4.873,0-8.828,3.955-8.828,8.828V201.741z"/>
</g>
<g>
	<path style="fill:#DEDEDE;" d="M201.649,320.322c0.856,8.439,8.386,14.592,16.825,13.736c6.7-0.68,12.182-5.65,13.515-12.253
		l9.71-48.472c-13.594,7.671-27.983,13.85-42.902,18.441L201.649,320.322z"/>
	<path style="fill:#DEDEDE;" d="M323.434,158.866c-6.171,38.312-26.315,72.969-56.541,97.307l13.118,65.615
		c1.668,8.316,9.772,13.7,18.088,12.032c6.603-1.333,11.573-6.806,12.253-13.515l7.442-74.425l11.891-29.74
		c3.814-9.516,5.764-19.677,5.764-29.917C335.439,175.823,331.079,165.91,323.434,158.866z"/>
	<path style="fill:#DEDEDE;" d="M360.545,320.322c0.856,8.439,8.386,14.592,16.825,13.736c6.7-0.68,12.182-5.65,13.515-12.253
		l9.71-48.472c-13.594,7.671-27.983,13.85-42.902,18.441L360.545,320.322z"/>
	<path style="fill:#DEDEDE;" d="M482.33,158.866c-6.171,38.312-26.315,72.969-56.541,97.307l13.118,65.615
		c1.668,8.316,9.772,13.7,18.088,12.032c6.603-1.333,11.573-6.806,12.253-13.515l7.442-74.425l11.891-29.74
		c3.814-9.516,5.764-19.677,5.764-29.917C494.336,175.823,489.975,165.91,482.33,158.866z"/>
	<path style="fill:#DEDEDE;" d="M184.002,358.113c-8.686-8.448-8.889-22.334-0.441-31.02l0,0c6.453-6.7,10.169-15.572,10.434-24.876
		c-41.543,55.843-115.553,83.456-166.303,96.441l70.85,6.956l29.899,11.476c9.578,3.663,19.765,5.464,30.014,5.297
		c20.683-0.283,37.226-17.276,36.943-37.959c-0.132-9.94-4.22-19.421-11.343-26.35L184.002,358.113z"/>
</g>
<g>
</g>
<g>
</g>
<g>
</g>
<g>
</g>
<g>
</g>
<g>
</g>
<g>
</g>
<g>
</g>
<g>
</g>
<g>
</g>
<g>
</g>
<g>
</g>
<g>
</g>
<g>
</g>
<g>
</g>
</svg>
